<svg xmlns="http://www.w3.org/2000/svg" viewBox="0 0 16 12.16"><title>Ad Units</title><g id="Warstwa_2" data-name="Warstwa 2"><g id="Menu"><path d="M16,10.88H0V0H16ZM.64,10.24H15.36V.64H.64Zm12.26,1.6a.32.32,0,0,0-.32-.32H3.42a.32.32,0,0,0,0,.64h9.17A.32.32,0,0,0,12.9,11.84ZM13,1.92h1.92V1.6a.49.49,0,0,0-.48-.48H1.6a.49.49,0,0,0-.48.48v.32H3a.48.48,0,0,1,.48.48V4.32A.48.48,0,0,1,3,4.8H1.12V9.28a.49.49,0,0,0,.48.48H14.4a.49.49,0,0,0,.48-.48V4.8H13a.48.48,0,0,1-.48-.48V2.4A.48.48,0,0,1,13,1.92Zm-8.8.32a.48.48,0,0,1,.48-.48h6.72a.48.48,0,0,1,.48.48V4.48a.48.48,0,0,1-.48.48H4.64a.48.48,0,0,1-.48-.48ZM8.48,6.88V7.2H5.92V6.88Zm-3.2,1.6H2.72V5.92H5.28Zm7.2,0H5.92V8.16h6.56Z" fill="#4c4e52"/></g></g></svg>