<svg xmlns="http://www.w3.org/2000/svg" viewBox="0 0 16 14.4"><title>Adding custom JS classes (TVML only)_1</title><g id="Warstwa_2" data-name="Warstwa 2"><g id="Menu"><path id="App_Store" data-name="App Store" d="M0,8.82V6.65a.36.36,0,0,1,.36-.36H4.2L2.53,9.19H.36A.36.36,0,0,1,0,8.82Zm2.73,4.45-1.22.83c-.16.11-.28,0-.26-.16l.16-1.42a.22.22,0,0,1,.36-.18l.95.54A.21.21,0,0,1,2.73,13.27Zm.29-.8-.95-.54a.36.36,0,0,1-.13-.49L6.33,3.83a.37.37,0,0,1,.5-.13l.95.54a.36.36,0,0,1,.13.49L3.52,12.34A.37.37,0,0,1,3,12.47ZM6.37,9.19,8,6.29H9l1.36,2.89Zm5.44.86c-.38-.19-2.27-4.53-2.75-5.66S7.11.24,7.58,0,9.13,2.21,10,3.64s2.8,5.1,3,5.52-.22.77-.48.87A.73.73,0,0,1,11.81,10.05ZM13,12l-.57-.9a.35.35,0,0,1,.13-.52l.54-.28a.4.4,0,0,1,.53.18l.45.86a.43.43,0,0,1-.15.56l-.39.23A.41.41,0,0,1,13,12Zm2.1,2.35c-.12-.38-1-.41-1.44-1a.65.65,0,0,1,.07-1C15.44,11.49,15.15,14.4,15.15,14.4ZM16,8.82a.36.36,0,0,1-.36.36H13.72a1.09,1.09,0,0,0-.11-.33l-.35-.66-1-1.9h3.4a.36.36,0,0,1,.36.36V8.82h0Z" fill="#4c4e52"/></g></g></svg>