<svg xmlns="http://www.w3.org/2000/svg" viewBox="0 0 16 16"><title>Declaring Session</title><g id="Warstwa_2" data-name="Warstwa 2"><g id="Menu"><path d="M8,16a.38.38,0,1,1,0-.76A7.24,7.24,0,0,0,10.82,1.33,7.25,7.25,0,0,0,1.33,5.18a7.23,7.23,0,0,0,1.55,7.94.38.38,0,0,1-.54.54A8,8,0,1,1,8,16Z"/><path d="M8,8.38A.38.38,0,0,1,7.62,8V3.43a.38.38,0,1,1,.76,0V8A.38.38,0,0,1,8,8.38Z"/><path d="M8,8.38H3.43a.38.38,0,0,1,0-.76H8a.38.38,0,0,1,0,.76Z"/><polygon points="2.54 13.4 3.54 12.41 4.06 13.93 4.58 15.45 3.06 14.93 1.54 14.4 2.54 13.4"/></g></g></svg>