<svg xmlns="http://www.w3.org/2000/svg" viewBox="0 0 14.81 15.35"><title>Getting Started</title><g id="Warstwa_2" data-name="Warstwa 2"><g id="Menu"><path d="M11.32,2.15a7,7,0,0,1,2.54,3.08,7,7,0,0,1,.41,1.31,7.07,7.07,0,0,1,0,2.82,7,7,0,0,1-1.05,2.5,7,7,0,0,1-3.08,2.54,7,7,0,0,1-1.31.41,7.07,7.07,0,0,1-2.82,0,7,7,0,0,1-2.5-1.05A7,7,0,0,1,1,10.67,7,7,0,0,1,.55,9.36a7.07,7.07,0,0,1,0-2.82A7,7,0,0,1,1.6,4,7,7,0,0,1,3.49,2.15" fill="none" stroke="#4c4e52" stroke-linecap="round" stroke-miterlimit="10" stroke-width="0.81"/><line x1="7.4" y1="8.55" x2="7.4" y2="0.5" fill="none" stroke="#4c4e52" stroke-linecap="round" stroke-miterlimit="10"/></g></g></svg>