<svg xmlns="http://www.w3.org/2000/svg" viewBox="0 0 16 6.12"><title>Initializing SDK</title><g id="Warstwa_2" data-name="Warstwa 2"><g id="Menu"><path d="M3.81,4.42a1.5,1.5,0,0,1-.57,1.25,2.5,2.5,0,0,1-1.58.45A3.78,3.78,0,0,1,0,5.81V4.89a4.49,4.49,0,0,0,.87.3,3.67,3.67,0,0,0,.85.11,1.36,1.36,0,0,0,.85-.22.72.72,0,0,0,.27-.59.74.74,0,0,0-.25-.57,3.8,3.8,0,0,0-1-.55A2.76,2.76,0,0,1,.4,2.62a1.59,1.59,0,0,1-.33-1A1.43,1.43,0,0,1,.6.43,2.2,2.2,0,0,1,2,0a4.18,4.18,0,0,1,1.7.37l-.31.79A3.72,3.72,0,0,0,2,.83,1.09,1.09,0,0,0,1.28,1,.68.68,0,0,0,1,1.58a.77.77,0,0,0,.1.4,1,1,0,0,0,.32.31,5.44,5.44,0,0,0,.81.39,4.41,4.41,0,0,1,1,.51,1.5,1.5,0,0,1,.45.53A1.6,1.6,0,0,1,3.81,4.42ZM10,3a3,3,0,0,1-.82,2.25A3.29,3.29,0,0,1,6.83,6H5.16v-6H7A3,3,0,0,1,9.22.85,2.86,2.86,0,0,1,10,3ZM9,3Q9,.9,7,.9H6.14V5.22h.69A1.92,1.92,0,0,0,9,3Zm7,3H14.87L13,3.34l-.57.47V6h-1v-6h1V2.93q.4-.49.79-.94L14.83.09h1.11L13.7,2.7Z" fill="#4c4e52"/></g></g></svg>