<svg xmlns="http://www.w3.org/2000/svg" id="colortv." viewBox="0 0 912.85 354.33" class="injected-svg injectSVG unblock-svgs" style="display: initial;"><defs><linearGradient id="Nowa_próbka_gradientu_2-0" x1="558.52" y1="354.33" x2="912.85" gradientUnits="userSpaceOnUse"><stop offset="0" stop-color="#e35050"></stop><stop offset=".15" stop-color="#fc9721"></stop><stop offset=".3" stop-color="#fec550"></stop><stop offset=".45" stop-color="#afd739"></stop><stop offset=".6" stop-color="#6bc6cb"></stop><stop offset=".75" stop-color="#79ccec"></stop><stop offset=".88" stop-color="#c492db"></stop><stop offset="1" stop-color="#d0a9e0"></stop></linearGradient></defs><title>c o l o r t v - color</title><path id="_" data-name="[ ]" fill="url(#Nowa_próbka_gradientu_2-0)" d="M558.52 0v62.97h12.22V12.22h329.89v329.89H570.74V311h-12.22v43.33h354.33V0H558.52z"></path><path id="colortv.-2" data-name="colortv." d="M492.91 705.18a145 145 0 0 1-32.59 3.49q-66.35 0-66.35-63.31 0-58.67 66.35-58.67a145 145 0 0 1 32.59 3.49v10.46a134.48 134.48 0 0 0-30.27-3.49q-55.29 0-55.29 48.21 0 52.86 55.29 52.86a134.48 134.48 0 0 0 30.27-3.49v10.46zm22-57.51q0-61 58.2-61t58.2 61q0 60.88-58.2 60.88-57.92 0-58.11-60.88zm58.2 50.54q46 0 46-51 0-50.07-46-50.07t-46 50.07q.07 51 46.05 51zm105.94-24q0 24 18.28 24h10.24v10.46h-10q-30.73 0-30.73-32.88V566.93h12.26v107.23zm48.18-26.49q0-61 58.2-61t58.2 61q0 60.88-58.2 60.88-57.92-.05-58.16-60.93zm58.2 50.54q46 0 46-51 0-50.07-46-50.07t-46 50.07q.07 50.95 46.05 50.95zM893 708.66v-87.48q0-24 18.28-24h10.24v-10.5h-10q-30.73 0-30.73 32.88v89.11H893zm59.5-141.73h12.22v19.75h25.11l3.41 10.46h-28.53v77q0 24 18.28 24h10.24v10.46h-10q-30.73 0-30.73-32.88V566.93zm63.3 19.75h14l44.7 111.41 44.93-111.41h14l-52 122h-14.2zm136.5 109.76h-12.22v12.22h12.22v-12.22z" transform="translate(-393.97 -460.63)"></path></svg>