<svg xmlns="http://www.w3.org/2000/svg" viewBox="0 0 16 12.16"><title>Placements</title><g id="Warstwa_2" data-name="Warstwa 2"><g id="Menu"><path d="M12.58,11.52H3.42a.32.32,0,0,0,0,.64h9.17a.32.32,0,0,0,0-.64Z" fill="#4c4e52"/><path d="M0,0V10.88H16V0ZM15.36,10.24H.64V.64H15.36Z" fill="#4c4e52"/><path d="M8,3.19V2.44A3,3,0,0,0,5.65,3.57L6.24,4A2.25,2.25,0,0,1,8,3.19Z" fill="#4c4e52"/><path d="M10.35,3.57,9.76,4a2.25,2.25,0,0,1,.44,1.9l.73.17a3,3,0,0,0-.58-2.54Z" fill="#4c4e52" opacity="0.25"/><path d="M9.76,4l.59-.47A3,3,0,0,0,8,2.44v.75A2.25,2.25,0,0,1,9.76,4Z" fill="#4c4e52" opacity="0.1"/><path d="M5.75,5.44A2.24,2.24,0,0,1,6.24,4l-.59-.47a3,3,0,0,0-.58,2.54l.73-.17A2.26,2.26,0,0,1,5.75,5.44Z" fill="#4c4e52" opacity="0.75"/><path d="M5.81,5.94l-.73.17a3,3,0,0,0,1.62,2L7,7.47A2.25,2.25,0,0,1,5.81,5.94Z" fill="#4c4e52" opacity="0.6"/><path d="M10.19,5.94A2.25,2.25,0,0,1,9,7.47l.33.68a3,3,0,0,0,1.62-2Z" fill="#4c4e52" opacity="0.3"/><path d="M8,7.69a2.24,2.24,0,0,1-1-.22l-.33.68a3,3,0,0,0,2.6,0L9,7.47A2.24,2.24,0,0,1,8,7.69Z" fill="#4c4e52" opacity="0.45"/><path id="colortv.-2" d="M6.85,4.54H7V4.8h.32l0,.13H7v1q0,.3.23.3h.13v.13H7.24q-.39,0-.39-.42V4.54Zm.8.25h.18L8.4,6.21,9,4.8h.18L8.49,6.34H8.31ZM9.39,6.19H9.23v.16h.16Z" fill="#4c4e52"/></g></g></svg>