<svg xmlns="http://www.w3.org/2000/svg" viewBox="0 0 14.4 16"><title>Summary</title><g id="Warstwa_2" data-name="Warstwa 2"><g id="Menu"><line x1="6.57" y1="11.58" x2="10.68" y2="7.47" fill="none" stroke="#4c4e52" stroke-linecap="round" stroke-miterlimit="10" stroke-width="0.8"/><line x1="4.52" y1="9.53" x2="6.57" y2="11.58" fill="none" stroke="#4c4e52" stroke-linecap="round" stroke-miterlimit="10" stroke-width="0.8"/><path d="M14.4,3.2V14.4A1.6,1.6,0,0,1,12.8,16H1.6A1.6,1.6,0,0,1,0,14.4V3.2A1.6,1.6,0,0,1,1.6,1.6h.8v.8H1.6a.8.8,0,0,0-.8.8V14.4a.8.8,0,0,0,.8.8H12.8a.8.8,0,0,0,.8-.8V3.2a.8.8,0,0,0-.8-.8H12V1.6h.8A1.6,1.6,0,0,1,14.4,3.2ZM11.2,1.6V3.2a.8.8,0,0,1-.8.8H4a.8.8,0,0,1-.8-.8V1.6A.8.8,0,0,1,4,.8H6.4A.8.8,0,1,1,8,.8h2.4A.8.8,0,0,1,11.2,1.6ZM6.8.8A.4.4,0,1,0,7.2.4.4.4,0,0,0,6.8.8Z" fill="#4c4e52"/></g></g></svg>