<svg xmlns="http://www.w3.org/2000/svg" viewBox="0 0 15.34 16"><title>Content Recommendation</title><g id="Warstwa_2" data-name="Warstwa 2"><g id="Menu"><path d="M14.11,2.15A5.27,5.27,0,0,0,11.18.3C10.65.16,10.1.11,9.57,0L9.43,0H8.23L7.32.09A8.14,8.14,0,0,0,3.63,1.38,5.12,5.12,0,0,0,1.36,5.05c0,.28,0,.57-.07.86a.86.86,0,0,0,.2.66.33.33,0,0,1,0,.44L.65,8.32c-.2.3-.39.59-.58.89a.37.37,0,0,0,.07.51A1.07,1.07,0,0,0,.88,10c.31,0,.37.13.31.43a3.12,3.12,0,0,1-.14.43.33.33,0,0,0,.12.45c.16.14.17.16.07.34s-.17.31.09.52a.38.38,0,0,1,.13.47,1.36,1.36,0,0,0-.08.92,1.2,1.2,0,0,0,.8.79,4.81,4.81,0,0,0,1.37.22c.29,0,.58,0,.88.06a.77.77,0,0,1,.78.79c0,.17,0,.34,0,.52h8L13,15.31a6.47,6.47,0,0,1,.71-5.45c.34-.56.68-1.12,1-1.69a4.06,4.06,0,0,0,.62-2,6.26,6.26,0,0,0-1.23-4.06M11,5.6l-.48.48L8.59,8,6.67,6.07,6.19,5.6A1.36,1.36,0,1,1,8.11,3.67l.48.48.48-.48A1.36,1.36,0,1,1,11,5.6" fill="#4c4e52" fill-rule="evenodd"/></g></g></svg>