<svg xmlns="http://www.w3.org/2000/svg" viewBox="0 0 16 12.16"><title>Displaying Ads</title><g id="Warstwa_2" data-name="Warstwa 2"><g id="Menu"><path d="M16,10.88H0V0H16ZM.64,10.24H15.36V.64H.64Zm12.26,1.6a.32.32,0,0,0-.32-.32H3.42a.32.32,0,0,0,0,.64h9.17A.32.32,0,0,0,12.9,11.84ZM14.4,1.12H1.6a.49.49,0,0,0-.48.48V9.28a.49.49,0,0,0,.48.48H14.4a.49.49,0,0,0,.48-.48V1.6A.49.49,0,0,0,14.4,1.12ZM8.58,5.6l-1,.58c-.15.09-.28,0-.28-.16V4.85c0-.18.12-.25.28-.16l1,.58C8.73,5.37,8.73,5.51,8.58,5.6Z" fill="#4c4e52"/></g></g></svg>