<svg xmlns="http://www.w3.org/2000/svg" viewBox="0 0 16 16"><title>Adding custom JS classes (TVML only)</title><g id="Warstwa_2" data-name="Warstwa 2"><g id="Menu"><g id="ZjrfnL.tif"><path d="M0,16Q0,8,0,0H16V16Zm9.45-2.86c.12.18.2.32.3.44a3.24,3.24,0,0,0,3.59.88,1.93,1.93,0,0,0,1.32-2,2.08,2.08,0,0,0-1.23-1.86c-.5-.27-1-.48-1.54-.74s-.62-.65-.42-1a.8.8,0,0,1,1.13-.18,4.24,4.24,0,0,1,.51.46l1.09-.7a2.3,2.3,0,0,0-2.8-1.14A2,2,0,0,0,9.93,9.58a2.08,2.08,0,0,0,1.22,1.61c.52.26,1.06.49,1.58.76a.68.68,0,0,1,.39.83.72.72,0,0,1-.68.52,1.56,1.56,0,0,1-1.59-.6.42.42,0,0,0-.37-.13C10.15,12.71,9.83,12.92,9.45,13.14Zm-5.25.15a2.67,2.67,0,0,0,.11.25A2.5,2.5,0,0,0,7.11,14.6a2,2,0,0,0,1.56-2.08c0-.13,0-.26,0-.4q0-2.17,0-4.33c0-.14,0-.28,0-.44H7.16c0,.22,0,.41,0,.59,0,1.52,0,3,0,4.57,0,.33-.09.65-.45.76a.88.88,0,0,1-1-.28l-.31-.41Z" fill="#4c4e52"/></g></g></g></svg>