<svg xmlns="http://www.w3.org/2000/svg" viewBox="0 0 12.69 13"><title>Know Issues</title><g id="Warstwa_2" data-name="Warstwa 2"><g id="Menu"><polygon points="8.06 5.77 10.79 3.04 11.93 2.47 12.69 0.95 12.31 0.57 10.79 1.33 10.21 2.47 7.49 5.2 8.06 5.77" fill="#4c4e52"/><path d="M4.53,6.82A.8.8,0,0,0,3.92,7L.49,10.48a.81.81,0,0,0,0,1.14l1.14,1.14a.81.81,0,0,0,1.14,0L6.21,9.33a.8.8,0,0,0,.23-.61Z" fill="#4c4e52"/><path d="M1.38.24,3,1.85A.81.81,0,1,1,1.85,3L.24,1.38A2.41,2.41,0,0,0,3.46,4.6L11,12.14A.81.81,0,0,0,12.14,11L4.6,3.46A2.41,2.41,0,0,0,1.38.24ZM11.85,11.85a.4.4,0,1,1,0-.57A.4.4,0,0,1,11.85,11.85Z" fill="#4c4e52"/></g></g></svg>