<svg xmlns="http://www.w3.org/2000/svg" viewBox="0 0 16 16"><title>Payments</title><g id="Warstwa_2" data-name="Warstwa 2"><g id="Menu"><path d="M10.87,9.28c0-1.38-1.23-1.54-2.47-1.65v-2a1.62,1.62,0,0,1,1.46.8.36.36,0,0,0,.35.2.46.46,0,0,0,.38-.18.31.31,0,0,0,0-.3A2.37,2.37,0,0,0,8.4,4.77V4.4a.4.4,0,1,0-.8,0v.36c-1.05.08-2.39.61-2.39,1.88S6.41,8.21,7.6,8.32v2.12C7,10.39,6.17,10.19,6,9.53a.35.35,0,0,0-.38-.27.49.49,0,0,0-.39.17.33.33,0,0,0-.05.3A2.57,2.57,0,0,0,7.6,11.24v.36a.4.4,0,1,0,.8,0v-.36C9.62,11.14,10.87,10.59,10.87,9.28ZM6.07,6.65c0-.68.85-1,1.53-1.06v2C6.74,7.47,6.07,7.32,6.07,6.65ZM8.4,10.43v-2c.87.08,1.62.22,1.62.9S9.22,10.35,8.4,10.43ZM8,.8A7.2,7.2,0,1,1,.8,8,7.21,7.21,0,0,1,8,.8M8,0a8,8,0,1,0,8,8A8,8,0,0,0,8,0Z" fill="#4c4e52"/></g></g></svg>