<svg xmlns="http://www.w3.org/2000/svg" viewBox="0 0 16 12.16"><title>Placements_1</title><g id="Warstwa_2" data-name="Warstwa 2"><g id="Menu"><path d="M12.58,11.52H3.42a.32.32,0,0,0,0,.64h9.17a.32.32,0,0,0,0-.64Z" fill="#4c4e52"/><path d="M0,0V10.88H16V0ZM15.36,10.24H.64V.64H15.36Z" fill="#4c4e52"/><path id="App_Store" data-name="App Store" d="M4.67,6.12v-.9a.15.15,0,0,1,.15-.15h1.6l-.7,1.21h-.9A.15.15,0,0,1,4.67,6.12ZM5.8,8l-.51.35c-.07,0-.12,0-.11-.07l.07-.59a.09.09,0,0,1,.15-.07l.39.23A.09.09,0,0,1,5.8,8Zm.12-.33-.39-.23a.15.15,0,0,1-.06-.21L7.3,4A.15.15,0,0,1,7.51,4l.39.23A.15.15,0,0,1,8,4.41L6.13,7.58A.15.15,0,0,1,5.93,7.64ZM7.32,6.27,8,5.06h.4L9,6.27Zm2.27.36A17.13,17.13,0,0,1,8.44,4.27c-.2-.47-.81-1.73-.61-1.83s.64.92,1,1.51S10,6.08,10.11,6.25s-.09.32-.2.36A.3.3,0,0,1,9.59,6.63Zm.52.83-.24-.37a.15.15,0,0,1,.06-.21l.23-.12a.17.17,0,0,1,.22.07l.19.36a.18.18,0,0,1-.06.23l-.16.1A.17.17,0,0,1,10.1,7.46Zm.88,1c0-.16-.43-.17-.6-.41a.27.27,0,0,1,0-.42C11.1,7.23,11,8.44,11,8.44Zm.35-2.32a.15.15,0,0,1-.15.15h-.8a.45.45,0,0,0,0-.14l-.15-.28-.42-.79h1.42a.15.15,0,0,1,.15.15v.9h0Z"/></g></g></svg>