<svg xmlns="http://www.w3.org/2000/svg" viewBox="0 0 8.4 12"><title>Tips Icon</title><g id="Warstwa_2" data-name="Warstwa 2"><g id="Główne"><path d="M.16,5.61h0A5.8,5.8,0,0,0,2.24,8.88h0l.08.06h0L2.4,9a3.26,3.26,0,0,0,.11.74l3.88-1A5.83,5.83,0,0,0,8.24,5.61h0A6.21,6.21,0,0,0,8.4,4.2,4.2,4.2,0,0,0,0,4.2,6.21,6.21,0,0,0,.16,5.61Zm4-5A3.6,3.6,0,0,1,7.8,4.2a5.24,5.24,0,0,1-1.8,4,4.09,4.09,0,0,1-3.6,0,5.27,5.27,0,0,1-1.8-4A3.6,3.6,0,0,1,4.2.6Z" fill="#497fdc"/><path d="M3.24,11.37a1.3,1.3,0,0,0,1,.63c.53,0,1-.57,1.33-1.25Z" fill="#497fdc"/><path d="M2.91,10.84l2.9-.78A4.61,4.61,0,0,0,6,9.44l-3.28.88A5,5,0,0,0,2.91,10.84Z" fill="#497fdc"/></g></g></svg>