<svg xmlns="http://www.w3.org/2000/svg" viewBox="0 0 13.23 13"><title>User Profile</title><g id="Warstwa_2" data-name="Warstwa 2"><g id="Menu"><path d="M13.23,13H0c0-2.18,0-2.14,1.3-2.41a4.65,4.65,0,0,0,2.22-.93,3.92,3.92,0,0,0,.45.5,4.1,4.1,0,0,0,2.63.66,4.72,4.72,0,0,0,2.63-.6l.06,0,.05,0a3.43,3.43,0,0,0,.4-.44,4.69,4.69,0,0,0,2.19.91C13.19,10.86,13.23,10.82,13.23,13ZM3.48,6.65h.15s0,0,0,.08c.57,1.34.5,1.84,1.15,2.45a5,5,0,0,0,3.63,0C9.1,8.56,9,8.07,9.56,6.73c0,0,0,0,0-.08h.15a.34.34,0,0,0,.19,0c.27-.19.42-1.22.42-1.64s-.23-.34-.31-.34H10V4.47a8.94,8.94,0,0,0,0-2C9.67,1.64,9.56.27,8.79.76,8.79,0,7.15,0,6.46,0c-.38,0-.65,0-.73,0A3.14,3.14,0,0,0,3.9.92c-.42.46-.38.73-.61,1.53a8.89,8.89,0,0,0,0,2v.15H3.17c-.08,0-.31-.15-.31.34S3,6.46,3.29,6.61A.29.29,0,0,0,3.48,6.65Z" fill="#4c4e52"/></g></g></svg>